<mxfile host="app.diagrams.net" modified="2024-03-05T01:31:50.294Z" agent="Mozilla/5.0 (Windows NT 10.0; Win64; x64) AppleWebKit/537.36 (KHTML, like Gecko) Chrome/121.0.0.0 Safari/537.36 OPR/107.0.0.0" etag="dNUO2AL2Sg2IUZhXfR1H" version="23.1.6" type="google">
  <diagram name="Page-1" id="JYo6WbHu8-HHSWUUS_jG">
    <mxGraphModel grid="1" page="1" gridSize="10" guides="1" tooltips="1" connect="1" arrows="1" fold="1" pageScale="1" pageWidth="827" pageHeight="1169" math="0" shadow="0">
      <root>
        <mxCell id="0" />
        <mxCell id="1" parent="0" />
        <mxCell id="OnsuEvIQbx1GbTyRY4oR-3" value="" style="edgeStyle=orthogonalEdgeStyle;rounded=0;orthogonalLoop=1;jettySize=auto;html=1;" edge="1" parent="1" source="OnsuEvIQbx1GbTyRY4oR-1" target="OnsuEvIQbx1GbTyRY4oR-2">
          <mxGeometry relative="1" as="geometry" />
        </mxCell>
        <mxCell id="OnsuEvIQbx1GbTyRY4oR-1" value="Window" style="whiteSpace=wrap;html=1;" vertex="1" parent="1">
          <mxGeometry x="354" y="30" width="120" height="60" as="geometry" />
        </mxCell>
        <mxCell id="OnsuEvIQbx1GbTyRY4oR-5" value="" style="edgeStyle=orthogonalEdgeStyle;rounded=0;orthogonalLoop=1;jettySize=auto;html=1;" edge="1" parent="1" source="OnsuEvIQbx1GbTyRY4oR-2" target="OnsuEvIQbx1GbTyRY4oR-4">
          <mxGeometry relative="1" as="geometry" />
        </mxCell>
        <mxCell id="OnsuEvIQbx1GbTyRY4oR-2" value="Document" style="whiteSpace=wrap;html=1;" vertex="1" parent="1">
          <mxGeometry x="354" y="120" width="120" height="60" as="geometry" />
        </mxCell>
        <mxCell id="OnsuEvIQbx1GbTyRY4oR-7" value="" style="edgeStyle=orthogonalEdgeStyle;rounded=0;orthogonalLoop=1;jettySize=auto;html=1;" edge="1" parent="1" source="OnsuEvIQbx1GbTyRY4oR-4" target="OnsuEvIQbx1GbTyRY4oR-6">
          <mxGeometry relative="1" as="geometry" />
        </mxCell>
        <mxCell id="OnsuEvIQbx1GbTyRY4oR-9" style="edgeStyle=orthogonalEdgeStyle;rounded=0;orthogonalLoop=1;jettySize=auto;html=1;exitX=1;exitY=0.5;exitDx=0;exitDy=0;entryX=0.5;entryY=0;entryDx=0;entryDy=0;" edge="1" parent="1" source="OnsuEvIQbx1GbTyRY4oR-4" target="OnsuEvIQbx1GbTyRY4oR-8">
          <mxGeometry relative="1" as="geometry">
            <Array as="points">
              <mxPoint x="560" y="240" />
            </Array>
          </mxGeometry>
        </mxCell>
        <mxCell id="OnsuEvIQbx1GbTyRY4oR-4" value="&amp;lt;html&amp;gt;" style="whiteSpace=wrap;html=1;" vertex="1" parent="1">
          <mxGeometry x="354" y="210" width="120" height="60" as="geometry" />
        </mxCell>
        <mxCell id="OnsuEvIQbx1GbTyRY4oR-6" value="&amp;lt;head&amp;gt;" style="whiteSpace=wrap;html=1;" vertex="1" parent="1">
          <mxGeometry x="210" y="290" width="120" height="60" as="geometry" />
        </mxCell>
        <mxCell id="OnsuEvIQbx1GbTyRY4oR-11" value="" style="edgeStyle=orthogonalEdgeStyle;rounded=0;orthogonalLoop=1;jettySize=auto;html=1;" edge="1" parent="1" source="OnsuEvIQbx1GbTyRY4oR-8" target="OnsuEvIQbx1GbTyRY4oR-10">
          <mxGeometry relative="1" as="geometry" />
        </mxCell>
        <mxCell id="OnsuEvIQbx1GbTyRY4oR-8" value="&amp;lt;body&amp;gt;" style="whiteSpace=wrap;html=1;" vertex="1" parent="1">
          <mxGeometry x="500" y="290" width="120" height="60" as="geometry" />
        </mxCell>
        <mxCell id="OnsuEvIQbx1GbTyRY4oR-13" value="" style="edgeStyle=orthogonalEdgeStyle;rounded=0;orthogonalLoop=1;jettySize=auto;html=1;" edge="1" parent="1" source="OnsuEvIQbx1GbTyRY4oR-10" target="OnsuEvIQbx1GbTyRY4oR-12">
          <mxGeometry relative="1" as="geometry" />
        </mxCell>
        <mxCell id="OnsuEvIQbx1GbTyRY4oR-10" value="&amp;lt;div class=mw-page-container&amp;gt;" style="whiteSpace=wrap;html=1;" vertex="1" parent="1">
          <mxGeometry x="500" y="380" width="120" height="60" as="geometry" />
        </mxCell>
        <mxCell id="OnsuEvIQbx1GbTyRY4oR-15" value="" style="edgeStyle=orthogonalEdgeStyle;rounded=0;orthogonalLoop=1;jettySize=auto;html=1;" edge="1" parent="1" source="OnsuEvIQbx1GbTyRY4oR-12" target="OnsuEvIQbx1GbTyRY4oR-14">
          <mxGeometry relative="1" as="geometry" />
        </mxCell>
        <mxCell id="OnsuEvIQbx1GbTyRY4oR-12" value="&amp;lt;div class=mw-footer-container&amp;gt;" style="whiteSpace=wrap;html=1;" vertex="1" parent="1">
          <mxGeometry x="500" y="470" width="120" height="60" as="geometry" />
        </mxCell>
        <mxCell id="OnsuEvIQbx1GbTyRY4oR-17" value="" style="edgeStyle=orthogonalEdgeStyle;rounded=0;orthogonalLoop=1;jettySize=auto;html=1;" edge="1" parent="1" source="OnsuEvIQbx1GbTyRY4oR-14" target="OnsuEvIQbx1GbTyRY4oR-16">
          <mxGeometry relative="1" as="geometry" />
        </mxCell>
        <mxCell id="OnsuEvIQbx1GbTyRY4oR-22" style="edgeStyle=orthogonalEdgeStyle;rounded=0;orthogonalLoop=1;jettySize=auto;html=1;exitX=0;exitY=0.5;exitDx=0;exitDy=0;entryX=0.5;entryY=0;entryDx=0;entryDy=0;" edge="1" parent="1" source="OnsuEvIQbx1GbTyRY4oR-14" target="OnsuEvIQbx1GbTyRY4oR-18">
          <mxGeometry relative="1" as="geometry" />
        </mxCell>
        <mxCell id="OnsuEvIQbx1GbTyRY4oR-23" style="edgeStyle=orthogonalEdgeStyle;rounded=0;orthogonalLoop=1;jettySize=auto;html=1;exitX=1;exitY=0.5;exitDx=0;exitDy=0;" edge="1" parent="1" source="OnsuEvIQbx1GbTyRY4oR-14" target="OnsuEvIQbx1GbTyRY4oR-20">
          <mxGeometry relative="1" as="geometry" />
        </mxCell>
        <mxCell id="OnsuEvIQbx1GbTyRY4oR-14" value="&amp;lt;footer id=&quot;footer&quot;&amp;gt;" style="whiteSpace=wrap;html=1;" vertex="1" parent="1">
          <mxGeometry x="500" y="555" width="120" height="60" as="geometry" />
        </mxCell>
        <mxCell id="OnsuEvIQbx1GbTyRY4oR-16" value="&amp;lt;ul id=&quot;footer-places&quot;&amp;gt;" style="whiteSpace=wrap;html=1;" vertex="1" parent="1">
          <mxGeometry x="500" y="1200" width="120" height="60" as="geometry" />
        </mxCell>
        <mxCell id="OnsuEvIQbx1GbTyRY4oR-29" style="edgeStyle=orthogonalEdgeStyle;rounded=0;orthogonalLoop=1;jettySize=auto;html=1;exitX=0.25;exitY=1;exitDx=0;exitDy=0;entryX=0.5;entryY=0;entryDx=0;entryDy=0;" edge="1" parent="1" source="OnsuEvIQbx1GbTyRY4oR-18" target="OnsuEvIQbx1GbTyRY4oR-24">
          <mxGeometry relative="1" as="geometry" />
        </mxCell>
        <mxCell id="OnsuEvIQbx1GbTyRY4oR-30" style="edgeStyle=orthogonalEdgeStyle;rounded=0;orthogonalLoop=1;jettySize=auto;html=1;exitX=0.75;exitY=1;exitDx=0;exitDy=0;entryX=0.5;entryY=0;entryDx=0;entryDy=0;" edge="1" parent="1" source="OnsuEvIQbx1GbTyRY4oR-18" target="OnsuEvIQbx1GbTyRY4oR-26">
          <mxGeometry relative="1" as="geometry" />
        </mxCell>
        <mxCell id="OnsuEvIQbx1GbTyRY4oR-18" value="&amp;lt;ul id=&quot;footer-info&quot;&amp;gt;" style="whiteSpace=wrap;html=1;" vertex="1" parent="1">
          <mxGeometry x="-70" y="695" width="120" height="60" as="geometry" />
        </mxCell>
        <mxCell id="OnsuEvIQbx1GbTyRY4oR-67" style="edgeStyle=orthogonalEdgeStyle;rounded=0;orthogonalLoop=1;jettySize=auto;html=1;exitX=0.25;exitY=1;exitDx=0;exitDy=0;entryX=0.5;entryY=0;entryDx=0;entryDy=0;" edge="1" parent="1" source="OnsuEvIQbx1GbTyRY4oR-20" target="OnsuEvIQbx1GbTyRY4oR-52">
          <mxGeometry relative="1" as="geometry" />
        </mxCell>
        <mxCell id="OnsuEvIQbx1GbTyRY4oR-68" style="edgeStyle=orthogonalEdgeStyle;rounded=0;orthogonalLoop=1;jettySize=auto;html=1;exitX=0.75;exitY=1;exitDx=0;exitDy=0;entryX=0.5;entryY=0;entryDx=0;entryDy=0;" edge="1" parent="1" source="OnsuEvIQbx1GbTyRY4oR-20" target="OnsuEvIQbx1GbTyRY4oR-57">
          <mxGeometry relative="1" as="geometry" />
        </mxCell>
        <mxCell id="OnsuEvIQbx1GbTyRY4oR-20" value="&amp;lt;ul id=&quot;footer-icons&quot;&amp;gt;" style="whiteSpace=wrap;html=1;" vertex="1" parent="1">
          <mxGeometry x="1070" y="695" width="120" height="60" as="geometry" />
        </mxCell>
        <mxCell id="OnsuEvIQbx1GbTyRY4oR-50" style="edgeStyle=orthogonalEdgeStyle;rounded=0;orthogonalLoop=1;jettySize=auto;html=1;exitX=0.5;exitY=1;exitDx=0;exitDy=0;entryX=0.5;entryY=0;entryDx=0;entryDy=0;" edge="1" parent="1" source="OnsuEvIQbx1GbTyRY4oR-24" target="OnsuEvIQbx1GbTyRY4oR-33">
          <mxGeometry relative="1" as="geometry" />
        </mxCell>
        <mxCell id="OnsuEvIQbx1GbTyRY4oR-24" value="&amp;lt;li id=&quot;footer-info-lastmod&quot;&amp;gt;" style="whiteSpace=wrap;html=1;" vertex="1" parent="1">
          <mxGeometry x="-220" y="835" width="120" height="60" as="geometry" />
        </mxCell>
        <mxCell id="OnsuEvIQbx1GbTyRY4oR-40" style="edgeStyle=orthogonalEdgeStyle;rounded=0;orthogonalLoop=1;jettySize=auto;html=1;exitX=0.25;exitY=1;exitDx=0;exitDy=0;entryX=0.5;entryY=0;entryDx=0;entryDy=0;" edge="1" parent="1" source="OnsuEvIQbx1GbTyRY4oR-26" target="OnsuEvIQbx1GbTyRY4oR-39">
          <mxGeometry relative="1" as="geometry" />
        </mxCell>
        <mxCell id="OnsuEvIQbx1GbTyRY4oR-42" style="edgeStyle=orthogonalEdgeStyle;rounded=0;orthogonalLoop=1;jettySize=auto;html=1;exitX=0.75;exitY=1;exitDx=0;exitDy=0;entryX=0.5;entryY=0;entryDx=0;entryDy=0;" edge="1" parent="1" source="OnsuEvIQbx1GbTyRY4oR-26" target="OnsuEvIQbx1GbTyRY4oR-41">
          <mxGeometry relative="1" as="geometry" />
        </mxCell>
        <mxCell id="OnsuEvIQbx1GbTyRY4oR-43" style="edgeStyle=orthogonalEdgeStyle;rounded=0;orthogonalLoop=1;jettySize=auto;html=1;exitX=0;exitY=1;exitDx=0;exitDy=0;entryX=0.5;entryY=0;entryDx=0;entryDy=0;" edge="1" parent="1" source="OnsuEvIQbx1GbTyRY4oR-26" target="OnsuEvIQbx1GbTyRY4oR-37">
          <mxGeometry relative="1" as="geometry">
            <Array as="points">
              <mxPoint x="80" y="910" />
              <mxPoint x="12" y="910" />
            </Array>
          </mxGeometry>
        </mxCell>
        <mxCell id="OnsuEvIQbx1GbTyRY4oR-45" style="edgeStyle=orthogonalEdgeStyle;rounded=0;orthogonalLoop=1;jettySize=auto;html=1;exitX=1;exitY=1;exitDx=0;exitDy=0;entryX=0.5;entryY=0;entryDx=0;entryDy=0;" edge="1" parent="1" source="OnsuEvIQbx1GbTyRY4oR-26" target="OnsuEvIQbx1GbTyRY4oR-44">
          <mxGeometry relative="1" as="geometry">
            <Array as="points">
              <mxPoint x="200" y="910" />
              <mxPoint x="262" y="910" />
            </Array>
          </mxGeometry>
        </mxCell>
        <mxCell id="OnsuEvIQbx1GbTyRY4oR-26" value="&amp;lt;li id=&quot;footer-info-copyright&quot;&amp;gt;" style="whiteSpace=wrap;html=1;" vertex="1" parent="1">
          <mxGeometry x="80" y="835" width="120" height="60" as="geometry" />
        </mxCell>
        <mxCell id="OnsuEvIQbx1GbTyRY4oR-33" value="Text" style="whiteSpace=wrap;html=1;" vertex="1" parent="1">
          <mxGeometry x="-192.5" y="930" width="65" height="60" as="geometry" />
        </mxCell>
        <mxCell id="OnsuEvIQbx1GbTyRY4oR-37" value="Text" style="whiteSpace=wrap;html=1;" vertex="1" parent="1">
          <mxGeometry x="-20" y="930" width="65" height="60" as="geometry" />
        </mxCell>
        <mxCell id="OnsuEvIQbx1GbTyRY4oR-47" value="" style="edgeStyle=orthogonalEdgeStyle;rounded=0;orthogonalLoop=1;jettySize=auto;html=1;" edge="1" parent="1" source="OnsuEvIQbx1GbTyRY4oR-39" target="OnsuEvIQbx1GbTyRY4oR-46">
          <mxGeometry relative="1" as="geometry" />
        </mxCell>
        <mxCell id="OnsuEvIQbx1GbTyRY4oR-39" value="&amp;lt;a&amp;gt;" style="whiteSpace=wrap;html=1;" vertex="1" parent="1">
          <mxGeometry x="50" y="930" width="65" height="60" as="geometry" />
        </mxCell>
        <mxCell id="OnsuEvIQbx1GbTyRY4oR-41" value="Text" style="whiteSpace=wrap;html=1;" vertex="1" parent="1">
          <mxGeometry x="160" y="930" width="65" height="60" as="geometry" />
        </mxCell>
        <mxCell id="OnsuEvIQbx1GbTyRY4oR-49" value="" style="edgeStyle=orthogonalEdgeStyle;rounded=0;orthogonalLoop=1;jettySize=auto;html=1;" edge="1" parent="1" source="OnsuEvIQbx1GbTyRY4oR-44" target="OnsuEvIQbx1GbTyRY4oR-48">
          <mxGeometry relative="1" as="geometry" />
        </mxCell>
        <mxCell id="OnsuEvIQbx1GbTyRY4oR-44" value="&amp;lt;a&amp;gt;" style="whiteSpace=wrap;html=1;" vertex="1" parent="1">
          <mxGeometry x="230" y="930" width="65" height="60" as="geometry" />
        </mxCell>
        <mxCell id="OnsuEvIQbx1GbTyRY4oR-46" value="Attribute:&lt;br&gt;&quot;href&quot;" style="whiteSpace=wrap;html=1;" vertex="1" parent="1">
          <mxGeometry x="50" y="1020" width="65" height="60" as="geometry" />
        </mxCell>
        <mxCell id="OnsuEvIQbx1GbTyRY4oR-48" value="Attribute:&lt;br&gt;&quot;href&quot;" style="whiteSpace=wrap;html=1;" vertex="1" parent="1">
          <mxGeometry x="230" y="1020" width="65" height="60" as="geometry" />
        </mxCell>
        <mxCell id="OnsuEvIQbx1GbTyRY4oR-51" style="edgeStyle=orthogonalEdgeStyle;rounded=0;orthogonalLoop=1;jettySize=auto;html=1;exitX=0.5;exitY=1;exitDx=0;exitDy=0;entryX=0.5;entryY=0;entryDx=0;entryDy=0;" edge="1" parent="1" source="OnsuEvIQbx1GbTyRY4oR-52" target="OnsuEvIQbx1GbTyRY4oR-58">
          <mxGeometry relative="1" as="geometry" />
        </mxCell>
        <mxCell id="OnsuEvIQbx1GbTyRY4oR-52" value="&amp;lt;li id=&quot;footer-copyrightico&quot;&amp;gt;" style="whiteSpace=wrap;html=1;" vertex="1" parent="1">
          <mxGeometry x="835" y="835" width="120" height="60" as="geometry" />
        </mxCell>
        <mxCell id="OnsuEvIQbx1GbTyRY4oR-80" style="edgeStyle=orthogonalEdgeStyle;rounded=0;orthogonalLoop=1;jettySize=auto;html=1;exitX=0.5;exitY=1;exitDx=0;exitDy=0;entryX=0.5;entryY=0;entryDx=0;entryDy=0;" edge="1" parent="1" source="OnsuEvIQbx1GbTyRY4oR-57" target="OnsuEvIQbx1GbTyRY4oR-77">
          <mxGeometry relative="1" as="geometry" />
        </mxCell>
        <mxCell id="OnsuEvIQbx1GbTyRY4oR-57" value="&amp;lt;li id=&quot;footer-poweredbyico&quot;&amp;gt;" style="whiteSpace=wrap;html=1;" vertex="1" parent="1">
          <mxGeometry x="1220" y="835" width="120" height="60" as="geometry" />
        </mxCell>
        <mxCell id="OnsuEvIQbx1GbTyRY4oR-70" value="" style="edgeStyle=orthogonalEdgeStyle;rounded=0;orthogonalLoop=1;jettySize=auto;html=1;exitX=0.25;exitY=1;exitDx=0;exitDy=0;" edge="1" parent="1" source="OnsuEvIQbx1GbTyRY4oR-58" target="OnsuEvIQbx1GbTyRY4oR-69">
          <mxGeometry relative="1" as="geometry">
            <Array as="points">
              <mxPoint x="879" y="1000" />
              <mxPoint x="817" y="1000" />
            </Array>
          </mxGeometry>
        </mxCell>
        <mxCell id="OnsuEvIQbx1GbTyRY4oR-74" style="edgeStyle=orthogonalEdgeStyle;rounded=0;orthogonalLoop=1;jettySize=auto;html=1;exitX=0.75;exitY=1;exitDx=0;exitDy=0;entryX=0.5;entryY=0;entryDx=0;entryDy=0;" edge="1" parent="1" source="OnsuEvIQbx1GbTyRY4oR-58" target="OnsuEvIQbx1GbTyRY4oR-72">
          <mxGeometry relative="1" as="geometry">
            <Array as="points">
              <mxPoint x="911" y="1000" />
              <mxPoint x="967" y="1000" />
            </Array>
          </mxGeometry>
        </mxCell>
        <mxCell id="OnsuEvIQbx1GbTyRY4oR-58" value="&amp;lt;a&amp;gt;" style="whiteSpace=wrap;html=1;" vertex="1" parent="1">
          <mxGeometry x="862.5" y="930" width="65" height="60" as="geometry" />
        </mxCell>
        <mxCell id="OnsuEvIQbx1GbTyRY4oR-69" value="Attribute:&lt;br&gt;&quot;href&quot;" style="whiteSpace=wrap;html=1;" vertex="1" parent="1">
          <mxGeometry x="785" y="1020" width="65" height="60" as="geometry" />
        </mxCell>
        <mxCell id="OnsuEvIQbx1GbTyRY4oR-82" style="edgeStyle=orthogonalEdgeStyle;rounded=0;orthogonalLoop=1;jettySize=auto;html=1;exitX=0;exitY=1;exitDx=0;exitDy=0;entryX=0.5;entryY=0;entryDx=0;entryDy=0;" edge="1" parent="1" source="OnsuEvIQbx1GbTyRY4oR-72" target="OnsuEvIQbx1GbTyRY4oR-81">
          <mxGeometry relative="1" as="geometry">
            <Array as="points">
              <mxPoint x="935" y="1090" />
              <mxPoint x="915" y="1090" />
              <mxPoint x="868" y="1089" />
            </Array>
          </mxGeometry>
        </mxCell>
        <mxCell id="OnsuEvIQbx1GbTyRY4oR-94" style="edgeStyle=orthogonalEdgeStyle;rounded=0;orthogonalLoop=1;jettySize=auto;html=1;exitX=0.25;exitY=1;exitDx=0;exitDy=0;entryX=0.5;entryY=0;entryDx=0;entryDy=0;" edge="1" parent="1" source="OnsuEvIQbx1GbTyRY4oR-72" target="OnsuEvIQbx1GbTyRY4oR-83">
          <mxGeometry relative="1" as="geometry">
            <Array as="points">
              <mxPoint x="951" y="1100" />
              <mxPoint x="897" y="1100" />
            </Array>
          </mxGeometry>
        </mxCell>
        <mxCell id="OnsuEvIQbx1GbTyRY4oR-95" style="edgeStyle=orthogonalEdgeStyle;rounded=0;orthogonalLoop=1;jettySize=auto;html=1;exitX=0.5;exitY=1;exitDx=0;exitDy=0;entryX=0.5;entryY=0;entryDx=0;entryDy=0;" edge="1" parent="1" source="OnsuEvIQbx1GbTyRY4oR-72" target="OnsuEvIQbx1GbTyRY4oR-84">
          <mxGeometry relative="1" as="geometry" />
        </mxCell>
        <mxCell id="OnsuEvIQbx1GbTyRY4oR-96" style="edgeStyle=orthogonalEdgeStyle;rounded=0;orthogonalLoop=1;jettySize=auto;html=1;exitX=0.75;exitY=1;exitDx=0;exitDy=0;entryX=0.5;entryY=0;entryDx=0;entryDy=0;" edge="1" parent="1" source="OnsuEvIQbx1GbTyRY4oR-72" target="OnsuEvIQbx1GbTyRY4oR-87">
          <mxGeometry relative="1" as="geometry">
            <Array as="points">
              <mxPoint x="984" y="1100" />
              <mxPoint x="1037" y="1100" />
            </Array>
          </mxGeometry>
        </mxCell>
        <mxCell id="OnsuEvIQbx1GbTyRY4oR-97" style="edgeStyle=orthogonalEdgeStyle;rounded=0;orthogonalLoop=1;jettySize=auto;html=1;exitX=1;exitY=1;exitDx=0;exitDy=0;entryX=0.5;entryY=0;entryDx=0;entryDy=0;" edge="1" parent="1" source="OnsuEvIQbx1GbTyRY4oR-72" target="OnsuEvIQbx1GbTyRY4oR-88">
          <mxGeometry relative="1" as="geometry">
            <Array as="points">
              <mxPoint x="1000" y="1090" />
              <mxPoint x="1040" y="1090" />
              <mxPoint x="1113" y="1089" />
            </Array>
          </mxGeometry>
        </mxCell>
        <mxCell id="OnsuEvIQbx1GbTyRY4oR-72" value="&amp;lt;img&amp;gt;" style="whiteSpace=wrap;html=1;" vertex="1" parent="1">
          <mxGeometry x="935" y="1020" width="65" height="60" as="geometry" />
        </mxCell>
        <mxCell id="OnsuEvIQbx1GbTyRY4oR-75" value="" style="edgeStyle=orthogonalEdgeStyle;rounded=0;orthogonalLoop=1;jettySize=auto;html=1;exitX=0.25;exitY=1;exitDx=0;exitDy=0;" edge="1" parent="1" source="OnsuEvIQbx1GbTyRY4oR-77" target="OnsuEvIQbx1GbTyRY4oR-78">
          <mxGeometry relative="1" as="geometry">
            <Array as="points">
              <mxPoint x="1266.5" y="1000" />
              <mxPoint x="1204.5" y="1000" />
            </Array>
          </mxGeometry>
        </mxCell>
        <mxCell id="OnsuEvIQbx1GbTyRY4oR-109" style="edgeStyle=orthogonalEdgeStyle;rounded=0;orthogonalLoop=1;jettySize=auto;html=1;exitX=0.75;exitY=1;exitDx=0;exitDy=0;entryX=0.5;entryY=0;entryDx=0;entryDy=0;" edge="1" parent="1" source="OnsuEvIQbx1GbTyRY4oR-77" target="OnsuEvIQbx1GbTyRY4oR-103">
          <mxGeometry relative="1" as="geometry">
            <Array as="points">
              <mxPoint x="1299" y="1000" />
              <mxPoint x="1353" y="1000" />
            </Array>
          </mxGeometry>
        </mxCell>
        <mxCell id="OnsuEvIQbx1GbTyRY4oR-77" value="&amp;lt;a&amp;gt;" style="whiteSpace=wrap;html=1;" vertex="1" parent="1">
          <mxGeometry x="1250" y="930" width="65" height="60" as="geometry" />
        </mxCell>
        <mxCell id="OnsuEvIQbx1GbTyRY4oR-78" value="Attribute:&lt;br&gt;&quot;href&quot;" style="whiteSpace=wrap;html=1;" vertex="1" parent="1">
          <mxGeometry x="1172.5" y="1020" width="65" height="60" as="geometry" />
        </mxCell>
        <mxCell id="OnsuEvIQbx1GbTyRY4oR-81" value="Attribute:&lt;br&gt;&quot;src&quot;" style="whiteSpace=wrap;html=1;" vertex="1" parent="1">
          <mxGeometry x="795" y="1109" width="65" height="60" as="geometry" />
        </mxCell>
        <mxCell id="OnsuEvIQbx1GbTyRY4oR-83" value="Attribute:&lt;br&gt;&quot;srcset&quot;" style="whiteSpace=wrap;html=1;" vertex="1" parent="1">
          <mxGeometry x="865" y="1109" width="65" height="60" as="geometry" />
        </mxCell>
        <mxCell id="OnsuEvIQbx1GbTyRY4oR-84" value="Attribute:&lt;br&gt;&quot;width height&quot;" style="whiteSpace=wrap;html=1;" vertex="1" parent="1">
          <mxGeometry x="935" y="1109" width="65" height="60" as="geometry" />
        </mxCell>
        <mxCell id="OnsuEvIQbx1GbTyRY4oR-87" value="Attribute:&lt;br&gt;&quot;alt&quot;" style="whiteSpace=wrap;html=1;" vertex="1" parent="1">
          <mxGeometry x="1005" y="1109" width="65" height="60" as="geometry" />
        </mxCell>
        <mxCell id="OnsuEvIQbx1GbTyRY4oR-88" value="Attribute:&lt;br&gt;&quot;loading&quot;" style="whiteSpace=wrap;html=1;" vertex="1" parent="1">
          <mxGeometry x="1080" y="1109" width="65" height="60" as="geometry" />
        </mxCell>
        <mxCell id="OnsuEvIQbx1GbTyRY4oR-98" style="edgeStyle=orthogonalEdgeStyle;rounded=0;orthogonalLoop=1;jettySize=auto;html=1;exitX=0;exitY=1;exitDx=0;exitDy=0;entryX=0.5;entryY=0;entryDx=0;entryDy=0;" edge="1" parent="1" source="OnsuEvIQbx1GbTyRY4oR-103">
          <mxGeometry relative="1" as="geometry">
            <Array as="points">
              <mxPoint x="1320" y="1090" />
              <mxPoint x="1300" y="1090" />
              <mxPoint x="1253" y="1089" />
            </Array>
            <mxPoint x="1212.4999999999995" y="1109" as="targetPoint" />
          </mxGeometry>
        </mxCell>
        <mxCell id="OnsuEvIQbx1GbTyRY4oR-99" style="edgeStyle=orthogonalEdgeStyle;rounded=0;orthogonalLoop=1;jettySize=auto;html=1;exitX=0.25;exitY=1;exitDx=0;exitDy=0;entryX=0.5;entryY=0;entryDx=0;entryDy=0;" edge="1" parent="1" source="OnsuEvIQbx1GbTyRY4oR-103">
          <mxGeometry relative="1" as="geometry">
            <Array as="points">
              <mxPoint x="1336" y="1100" />
              <mxPoint x="1282" y="1100" />
            </Array>
            <mxPoint x="1282.4999999999995" y="1109" as="targetPoint" />
          </mxGeometry>
        </mxCell>
        <mxCell id="OnsuEvIQbx1GbTyRY4oR-100" style="edgeStyle=orthogonalEdgeStyle;rounded=0;orthogonalLoop=1;jettySize=auto;html=1;exitX=0.5;exitY=1;exitDx=0;exitDy=0;entryX=0.5;entryY=0;entryDx=0;entryDy=0;" edge="1" parent="1" source="OnsuEvIQbx1GbTyRY4oR-103">
          <mxGeometry relative="1" as="geometry">
            <mxPoint x="1352.4999999999995" y="1109" as="targetPoint" />
          </mxGeometry>
        </mxCell>
        <mxCell id="OnsuEvIQbx1GbTyRY4oR-101" style="edgeStyle=orthogonalEdgeStyle;rounded=0;orthogonalLoop=1;jettySize=auto;html=1;exitX=0.75;exitY=1;exitDx=0;exitDy=0;entryX=0.5;entryY=0;entryDx=0;entryDy=0;" edge="1" parent="1" source="OnsuEvIQbx1GbTyRY4oR-103">
          <mxGeometry relative="1" as="geometry">
            <Array as="points">
              <mxPoint x="1369" y="1100" />
              <mxPoint x="1422" y="1100" />
            </Array>
            <mxPoint x="1422.5" y="1109" as="targetPoint" />
          </mxGeometry>
        </mxCell>
        <mxCell id="OnsuEvIQbx1GbTyRY4oR-102" style="edgeStyle=orthogonalEdgeStyle;rounded=0;orthogonalLoop=1;jettySize=auto;html=1;exitX=1;exitY=1;exitDx=0;exitDy=0;entryX=0.5;entryY=0;entryDx=0;entryDy=0;" edge="1" parent="1" source="OnsuEvIQbx1GbTyRY4oR-103">
          <mxGeometry relative="1" as="geometry">
            <Array as="points">
              <mxPoint x="1385" y="1090" />
              <mxPoint x="1425" y="1090" />
              <mxPoint x="1498" y="1089" />
            </Array>
            <mxPoint x="1497.5" y="1109" as="targetPoint" />
          </mxGeometry>
        </mxCell>
        <mxCell id="OnsuEvIQbx1GbTyRY4oR-103" value="&amp;lt;img&amp;gt;" style="whiteSpace=wrap;html=1;" vertex="1" parent="1">
          <mxGeometry x="1320" y="1020" width="65" height="60" as="geometry" />
        </mxCell>
        <mxCell id="OnsuEvIQbx1GbTyRY4oR-111" value="Attribute:&lt;br&gt;&quot;src&quot;" style="whiteSpace=wrap;html=1;" vertex="1" parent="1">
          <mxGeometry x="1177.5" y="1109" width="65" height="60" as="geometry" />
        </mxCell>
        <mxCell id="OnsuEvIQbx1GbTyRY4oR-112" value="Attribute:&lt;br&gt;&quot;srcset&quot;" style="whiteSpace=wrap;html=1;" vertex="1" parent="1">
          <mxGeometry x="1247.5" y="1109" width="65" height="60" as="geometry" />
        </mxCell>
        <mxCell id="OnsuEvIQbx1GbTyRY4oR-113" value="Attribute:&lt;br&gt;&quot;width height&quot;" style="whiteSpace=wrap;html=1;" vertex="1" parent="1">
          <mxGeometry x="1317.5" y="1109" width="65" height="60" as="geometry" />
        </mxCell>
        <mxCell id="OnsuEvIQbx1GbTyRY4oR-114" value="Attribute:&lt;br&gt;&quot;alt&quot;" style="whiteSpace=wrap;html=1;" vertex="1" parent="1">
          <mxGeometry x="1387.5" y="1109" width="65" height="60" as="geometry" />
        </mxCell>
        <mxCell id="OnsuEvIQbx1GbTyRY4oR-115" value="Attribute:&lt;br&gt;&quot;loading&quot;" style="whiteSpace=wrap;html=1;" vertex="1" parent="1">
          <mxGeometry x="1462.5" y="1109" width="65" height="60" as="geometry" />
        </mxCell>
        <mxCell id="OnsuEvIQbx1GbTyRY4oR-203" style="edgeStyle=orthogonalEdgeStyle;rounded=0;orthogonalLoop=1;jettySize=auto;html=1;exitX=0.5;exitY=1;exitDx=0;exitDy=0;entryX=0.5;entryY=0;entryDx=0;entryDy=0;" edge="1" parent="1" source="OnsuEvIQbx1GbTyRY4oR-116" target="OnsuEvIQbx1GbTyRY4oR-136">
          <mxGeometry relative="1" as="geometry" />
        </mxCell>
        <mxCell id="OnsuEvIQbx1GbTyRY4oR-116" value="&amp;lt;li id=&quot;footer-places-privacy&quot;&amp;gt;" style="whiteSpace=wrap;html=1;" vertex="1" parent="1">
          <mxGeometry x="115" y="1350" width="90" height="60" as="geometry" />
        </mxCell>
        <mxCell id="OnsuEvIQbx1GbTyRY4oR-117" value="&amp;lt;li id=&quot;footer-places-about&quot;&amp;gt;" style="whiteSpace=wrap;html=1;" vertex="1" parent="1">
          <mxGeometry x="215" y="1350" width="90" height="60" as="geometry" />
        </mxCell>
        <mxCell id="OnsuEvIQbx1GbTyRY4oR-118" value="&amp;lt;li id=&quot;footer-places-disclaimers&lt;br&gt;&quot;&amp;gt;" style="whiteSpace=wrap;html=1;" vertex="1" parent="1">
          <mxGeometry x="318.5" y="1350" width="90" height="60" as="geometry" />
        </mxCell>
        <mxCell id="OnsuEvIQbx1GbTyRY4oR-258" style="edgeStyle=orthogonalEdgeStyle;rounded=0;orthogonalLoop=1;jettySize=auto;html=1;exitX=0.25;exitY=1;exitDx=0;exitDy=0;entryX=0.5;entryY=0;entryDx=0;entryDy=0;" edge="1" parent="1" source="OnsuEvIQbx1GbTyRY4oR-119" target="OnsuEvIQbx1GbTyRY4oR-257">
          <mxGeometry relative="1" as="geometry" />
        </mxCell>
        <mxCell id="OnsuEvIQbx1GbTyRY4oR-119" value="&amp;lt;li&amp;gt;" style="whiteSpace=wrap;html=1;" vertex="1" parent="1">
          <mxGeometry x="922.5" y="1350" width="90" height="60" as="geometry" />
        </mxCell>
        <mxCell id="OnsuEvIQbx1GbTyRY4oR-120" value="&amp;lt;li id=&quot;footer-places-wm-codeofconduct&quot;&amp;gt;" style="whiteSpace=wrap;html=1;" vertex="1" parent="1">
          <mxGeometry x="420" y="1350" width="90" height="60" as="geometry" />
        </mxCell>
        <mxCell id="OnsuEvIQbx1GbTyRY4oR-121" value="&amp;lt;li id=&quot;footer-places-developers&quot;&amp;gt;" style="whiteSpace=wrap;html=1;" vertex="1" parent="1">
          <mxGeometry x="520" y="1350" width="90" height="60" as="geometry" />
        </mxCell>
        <mxCell id="OnsuEvIQbx1GbTyRY4oR-122" value="&amp;lt;li id=&quot;footer-places-statslink&quot;&amp;gt;" style="whiteSpace=wrap;html=1;" vertex="1" parent="1">
          <mxGeometry x="620" y="1350" width="90" height="60" as="geometry" />
        </mxCell>
        <mxCell id="OnsuEvIQbx1GbTyRY4oR-123" value="&amp;lt;li id=&quot;footer-cookiestatement&lt;br&gt;&quot;&amp;gt;" style="whiteSpace=wrap;html=1;" vertex="1" parent="1">
          <mxGeometry x="720" y="1350" width="90" height="60" as="geometry" />
        </mxCell>
        <mxCell id="OnsuEvIQbx1GbTyRY4oR-124" value="&amp;lt;li id=&quot;footer-mobileview&quot;&amp;gt;" style="whiteSpace=wrap;html=1;" vertex="1" parent="1">
          <mxGeometry x="820" y="1350" width="90" height="60" as="geometry" />
        </mxCell>
        <mxCell id="OnsuEvIQbx1GbTyRY4oR-126" style="edgeStyle=orthogonalEdgeStyle;rounded=0;orthogonalLoop=1;jettySize=auto;html=1;exitX=0.5;exitY=1;exitDx=0;exitDy=0;" edge="1" parent="1" source="OnsuEvIQbx1GbTyRY4oR-16">
          <mxGeometry relative="1" as="geometry">
            <mxPoint x="560" y="1350" as="targetPoint" />
          </mxGeometry>
        </mxCell>
        <mxCell id="OnsuEvIQbx1GbTyRY4oR-127" style="edgeStyle=orthogonalEdgeStyle;rounded=0;orthogonalLoop=1;jettySize=auto;html=1;exitX=0.5;exitY=1;exitDx=0;exitDy=0;" edge="1" parent="1">
          <mxGeometry relative="1" as="geometry">
            <mxPoint x="570" y="1260" as="sourcePoint" />
            <mxPoint x="670" y="1350" as="targetPoint" />
            <Array as="points">
              <mxPoint x="570" y="1330" />
              <mxPoint x="670" y="1330" />
            </Array>
          </mxGeometry>
        </mxCell>
        <mxCell id="OnsuEvIQbx1GbTyRY4oR-129" style="edgeStyle=orthogonalEdgeStyle;rounded=0;orthogonalLoop=1;jettySize=auto;html=1;exitX=0.5;exitY=1;exitDx=0;exitDy=0;" edge="1" parent="1">
          <mxGeometry relative="1" as="geometry">
            <mxPoint x="580" y="1260" as="sourcePoint" />
            <mxPoint x="770" y="1350" as="targetPoint" />
            <Array as="points">
              <mxPoint x="580" y="1320" />
              <mxPoint x="770" y="1320" />
            </Array>
          </mxGeometry>
        </mxCell>
        <mxCell id="OnsuEvIQbx1GbTyRY4oR-130" style="edgeStyle=orthogonalEdgeStyle;rounded=0;orthogonalLoop=1;jettySize=auto;html=1;exitX=0.5;exitY=1;exitDx=0;exitDy=0;" edge="1" parent="1">
          <mxGeometry relative="1" as="geometry">
            <mxPoint x="590" y="1260" as="sourcePoint" />
            <mxPoint x="870" y="1350" as="targetPoint" />
            <Array as="points">
              <mxPoint x="590" y="1310" />
              <mxPoint x="870" y="1310" />
            </Array>
          </mxGeometry>
        </mxCell>
        <mxCell id="OnsuEvIQbx1GbTyRY4oR-131" style="edgeStyle=orthogonalEdgeStyle;rounded=0;orthogonalLoop=1;jettySize=auto;html=1;exitX=0.5;exitY=1;exitDx=0;exitDy=0;" edge="1" parent="1">
          <mxGeometry relative="1" as="geometry">
            <mxPoint x="600" y="1260" as="sourcePoint" />
            <mxPoint x="970" y="1350" as="targetPoint" />
            <Array as="points">
              <mxPoint x="600" y="1300" />
              <mxPoint x="971" y="1300" />
              <mxPoint x="971" y="1330" />
              <mxPoint x="970" y="1330" />
            </Array>
          </mxGeometry>
        </mxCell>
        <mxCell id="OnsuEvIQbx1GbTyRY4oR-132" style="edgeStyle=orthogonalEdgeStyle;rounded=0;orthogonalLoop=1;jettySize=auto;html=1;exitX=0.5;exitY=1;exitDx=0;exitDy=0;" edge="1" parent="1">
          <mxGeometry relative="1" as="geometry">
            <mxPoint x="550" y="1260" as="sourcePoint" />
            <mxPoint x="470" y="1350" as="targetPoint" />
            <Array as="points">
              <mxPoint x="550" y="1330" />
              <mxPoint x="471" y="1330" />
              <mxPoint x="471" y="1340" />
            </Array>
          </mxGeometry>
        </mxCell>
        <mxCell id="OnsuEvIQbx1GbTyRY4oR-133" style="edgeStyle=orthogonalEdgeStyle;rounded=0;orthogonalLoop=1;jettySize=auto;html=1;exitX=0.5;exitY=1;exitDx=0;exitDy=0;" edge="1" parent="1">
          <mxGeometry relative="1" as="geometry">
            <mxPoint x="540" y="1260" as="sourcePoint" />
            <mxPoint x="360" y="1350" as="targetPoint" />
            <Array as="points">
              <mxPoint x="540" y="1320" />
              <mxPoint x="360" y="1320" />
              <mxPoint x="360" y="1340" />
            </Array>
          </mxGeometry>
        </mxCell>
        <mxCell id="OnsuEvIQbx1GbTyRY4oR-134" style="edgeStyle=orthogonalEdgeStyle;rounded=0;orthogonalLoop=1;jettySize=auto;html=1;exitX=0.5;exitY=1;exitDx=0;exitDy=0;" edge="1" parent="1">
          <mxGeometry relative="1" as="geometry">
            <mxPoint x="530" y="1260" as="sourcePoint" />
            <mxPoint x="260" y="1350" as="targetPoint" />
            <Array as="points">
              <mxPoint x="530" y="1310" />
              <mxPoint x="260" y="1310" />
              <mxPoint x="260" y="1350" />
            </Array>
          </mxGeometry>
        </mxCell>
        <mxCell id="OnsuEvIQbx1GbTyRY4oR-135" style="edgeStyle=orthogonalEdgeStyle;rounded=0;orthogonalLoop=1;jettySize=auto;html=1;exitX=0.5;exitY=1;exitDx=0;exitDy=0;" edge="1" parent="1">
          <mxGeometry relative="1" as="geometry">
            <mxPoint x="520" y="1260" as="sourcePoint" />
            <mxPoint x="160" y="1350" as="targetPoint" />
            <Array as="points">
              <mxPoint x="520" y="1300" />
              <mxPoint x="160" y="1300" />
              <mxPoint x="160" y="1350" />
            </Array>
          </mxGeometry>
        </mxCell>
        <mxCell id="OnsuEvIQbx1GbTyRY4oR-201" style="edgeStyle=orthogonalEdgeStyle;rounded=0;orthogonalLoop=1;jettySize=auto;html=1;exitX=0.25;exitY=1;exitDx=0;exitDy=0;entryX=0.5;entryY=0;entryDx=0;entryDy=0;" edge="1" parent="1" source="OnsuEvIQbx1GbTyRY4oR-136" target="OnsuEvIQbx1GbTyRY4oR-139">
          <mxGeometry relative="1" as="geometry" />
        </mxCell>
        <mxCell id="OnsuEvIQbx1GbTyRY4oR-202" style="edgeStyle=orthogonalEdgeStyle;rounded=0;orthogonalLoop=1;jettySize=auto;html=1;exitX=0.75;exitY=1;exitDx=0;exitDy=0;entryX=0.5;entryY=0;entryDx=0;entryDy=0;" edge="1" parent="1" source="OnsuEvIQbx1GbTyRY4oR-136" target="OnsuEvIQbx1GbTyRY4oR-138">
          <mxGeometry relative="1" as="geometry" />
        </mxCell>
        <mxCell id="OnsuEvIQbx1GbTyRY4oR-136" value="&amp;lt;a&amp;gt;" style="whiteSpace=wrap;html=1;" vertex="1" parent="1">
          <mxGeometry x="140" y="1430" width="40" height="60" as="geometry" />
        </mxCell>
        <mxCell id="OnsuEvIQbx1GbTyRY4oR-138" value="Text" style="whiteSpace=wrap;html=1;" vertex="1" parent="1">
          <mxGeometry x="170" y="1510" width="35" height="60" as="geometry" />
        </mxCell>
        <mxCell id="OnsuEvIQbx1GbTyRY4oR-139" value="Attribute:&lt;br&gt;&quot;href&quot;" style="whiteSpace=wrap;html=1;" vertex="1" parent="1">
          <mxGeometry x="115" y="1510" width="45" height="60" as="geometry" />
        </mxCell>
        <mxCell id="OnsuEvIQbx1GbTyRY4oR-209" style="edgeStyle=orthogonalEdgeStyle;rounded=0;orthogonalLoop=1;jettySize=auto;html=1;exitX=0.5;exitY=1;exitDx=0;exitDy=0;entryX=0.5;entryY=0;entryDx=0;entryDy=0;" edge="1" parent="1" target="OnsuEvIQbx1GbTyRY4oR-212">
          <mxGeometry relative="1" as="geometry">
            <mxPoint x="262.5" y="1410" as="sourcePoint" />
          </mxGeometry>
        </mxCell>
        <mxCell id="OnsuEvIQbx1GbTyRY4oR-210" style="edgeStyle=orthogonalEdgeStyle;rounded=0;orthogonalLoop=1;jettySize=auto;html=1;exitX=0.25;exitY=1;exitDx=0;exitDy=0;entryX=0.5;entryY=0;entryDx=0;entryDy=0;" edge="1" parent="1" source="OnsuEvIQbx1GbTyRY4oR-212" target="OnsuEvIQbx1GbTyRY4oR-214">
          <mxGeometry relative="1" as="geometry" />
        </mxCell>
        <mxCell id="OnsuEvIQbx1GbTyRY4oR-211" style="edgeStyle=orthogonalEdgeStyle;rounded=0;orthogonalLoop=1;jettySize=auto;html=1;exitX=0.75;exitY=1;exitDx=0;exitDy=0;entryX=0.5;entryY=0;entryDx=0;entryDy=0;" edge="1" parent="1" source="OnsuEvIQbx1GbTyRY4oR-212" target="OnsuEvIQbx1GbTyRY4oR-213">
          <mxGeometry relative="1" as="geometry" />
        </mxCell>
        <mxCell id="OnsuEvIQbx1GbTyRY4oR-212" value="&amp;lt;a&amp;gt;" style="whiteSpace=wrap;html=1;" vertex="1" parent="1">
          <mxGeometry x="242.5" y="1430" width="40" height="60" as="geometry" />
        </mxCell>
        <mxCell id="OnsuEvIQbx1GbTyRY4oR-213" value="Text" style="whiteSpace=wrap;html=1;" vertex="1" parent="1">
          <mxGeometry x="272.5" y="1510" width="35" height="60" as="geometry" />
        </mxCell>
        <mxCell id="OnsuEvIQbx1GbTyRY4oR-214" value="Attribute:&lt;br&gt;&quot;href&quot;" style="whiteSpace=wrap;html=1;" vertex="1" parent="1">
          <mxGeometry x="217.5" y="1510" width="45" height="60" as="geometry" />
        </mxCell>
        <mxCell id="OnsuEvIQbx1GbTyRY4oR-215" style="edgeStyle=orthogonalEdgeStyle;rounded=0;orthogonalLoop=1;jettySize=auto;html=1;exitX=0.5;exitY=1;exitDx=0;exitDy=0;entryX=0.5;entryY=0;entryDx=0;entryDy=0;" edge="1" parent="1" target="OnsuEvIQbx1GbTyRY4oR-218">
          <mxGeometry relative="1" as="geometry">
            <mxPoint x="369" y="1410" as="sourcePoint" />
          </mxGeometry>
        </mxCell>
        <mxCell id="OnsuEvIQbx1GbTyRY4oR-216" style="edgeStyle=orthogonalEdgeStyle;rounded=0;orthogonalLoop=1;jettySize=auto;html=1;exitX=0.25;exitY=1;exitDx=0;exitDy=0;entryX=0.5;entryY=0;entryDx=0;entryDy=0;" edge="1" parent="1" source="OnsuEvIQbx1GbTyRY4oR-218" target="OnsuEvIQbx1GbTyRY4oR-220">
          <mxGeometry relative="1" as="geometry" />
        </mxCell>
        <mxCell id="OnsuEvIQbx1GbTyRY4oR-217" style="edgeStyle=orthogonalEdgeStyle;rounded=0;orthogonalLoop=1;jettySize=auto;html=1;exitX=0.75;exitY=1;exitDx=0;exitDy=0;entryX=0.5;entryY=0;entryDx=0;entryDy=0;" edge="1" parent="1" source="OnsuEvIQbx1GbTyRY4oR-218" target="OnsuEvIQbx1GbTyRY4oR-219">
          <mxGeometry relative="1" as="geometry" />
        </mxCell>
        <mxCell id="OnsuEvIQbx1GbTyRY4oR-218" value="&amp;lt;a&amp;gt;" style="whiteSpace=wrap;html=1;" vertex="1" parent="1">
          <mxGeometry x="349" y="1430" width="40" height="60" as="geometry" />
        </mxCell>
        <mxCell id="OnsuEvIQbx1GbTyRY4oR-219" value="Text" style="whiteSpace=wrap;html=1;" vertex="1" parent="1">
          <mxGeometry x="379" y="1510" width="35" height="60" as="geometry" />
        </mxCell>
        <mxCell id="OnsuEvIQbx1GbTyRY4oR-220" value="Attribute:&lt;br&gt;&quot;href&quot;" style="whiteSpace=wrap;html=1;" vertex="1" parent="1">
          <mxGeometry x="324" y="1510" width="45" height="60" as="geometry" />
        </mxCell>
        <mxCell id="OnsuEvIQbx1GbTyRY4oR-221" style="edgeStyle=orthogonalEdgeStyle;rounded=0;orthogonalLoop=1;jettySize=auto;html=1;exitX=0.5;exitY=1;exitDx=0;exitDy=0;entryX=0.5;entryY=0;entryDx=0;entryDy=0;" edge="1" parent="1" target="OnsuEvIQbx1GbTyRY4oR-224">
          <mxGeometry relative="1" as="geometry">
            <mxPoint x="465" y="1410" as="sourcePoint" />
          </mxGeometry>
        </mxCell>
        <mxCell id="OnsuEvIQbx1GbTyRY4oR-222" style="edgeStyle=orthogonalEdgeStyle;rounded=0;orthogonalLoop=1;jettySize=auto;html=1;exitX=0.25;exitY=1;exitDx=0;exitDy=0;entryX=0.5;entryY=0;entryDx=0;entryDy=0;" edge="1" parent="1" source="OnsuEvIQbx1GbTyRY4oR-224" target="OnsuEvIQbx1GbTyRY4oR-226">
          <mxGeometry relative="1" as="geometry" />
        </mxCell>
        <mxCell id="OnsuEvIQbx1GbTyRY4oR-223" style="edgeStyle=orthogonalEdgeStyle;rounded=0;orthogonalLoop=1;jettySize=auto;html=1;exitX=0.75;exitY=1;exitDx=0;exitDy=0;entryX=0.5;entryY=0;entryDx=0;entryDy=0;" edge="1" parent="1" source="OnsuEvIQbx1GbTyRY4oR-224" target="OnsuEvIQbx1GbTyRY4oR-225">
          <mxGeometry relative="1" as="geometry" />
        </mxCell>
        <mxCell id="OnsuEvIQbx1GbTyRY4oR-224" value="&amp;lt;a&amp;gt;" style="whiteSpace=wrap;html=1;" vertex="1" parent="1">
          <mxGeometry x="445" y="1430" width="40" height="60" as="geometry" />
        </mxCell>
        <mxCell id="OnsuEvIQbx1GbTyRY4oR-225" value="Text" style="whiteSpace=wrap;html=1;" vertex="1" parent="1">
          <mxGeometry x="475" y="1510" width="35" height="60" as="geometry" />
        </mxCell>
        <mxCell id="OnsuEvIQbx1GbTyRY4oR-226" value="Attribute:&lt;br&gt;&quot;href&quot;" style="whiteSpace=wrap;html=1;" vertex="1" parent="1">
          <mxGeometry x="420" y="1510" width="45" height="60" as="geometry" />
        </mxCell>
        <mxCell id="OnsuEvIQbx1GbTyRY4oR-227" style="edgeStyle=orthogonalEdgeStyle;rounded=0;orthogonalLoop=1;jettySize=auto;html=1;exitX=0.5;exitY=1;exitDx=0;exitDy=0;entryX=0.5;entryY=0;entryDx=0;entryDy=0;" edge="1" parent="1" target="OnsuEvIQbx1GbTyRY4oR-230">
          <mxGeometry relative="1" as="geometry">
            <mxPoint x="565" y="1410" as="sourcePoint" />
          </mxGeometry>
        </mxCell>
        <mxCell id="OnsuEvIQbx1GbTyRY4oR-228" style="edgeStyle=orthogonalEdgeStyle;rounded=0;orthogonalLoop=1;jettySize=auto;html=1;exitX=0.25;exitY=1;exitDx=0;exitDy=0;entryX=0.5;entryY=0;entryDx=0;entryDy=0;" edge="1" parent="1" source="OnsuEvIQbx1GbTyRY4oR-230" target="OnsuEvIQbx1GbTyRY4oR-232">
          <mxGeometry relative="1" as="geometry" />
        </mxCell>
        <mxCell id="OnsuEvIQbx1GbTyRY4oR-229" style="edgeStyle=orthogonalEdgeStyle;rounded=0;orthogonalLoop=1;jettySize=auto;html=1;exitX=0.75;exitY=1;exitDx=0;exitDy=0;entryX=0.5;entryY=0;entryDx=0;entryDy=0;" edge="1" parent="1" source="OnsuEvIQbx1GbTyRY4oR-230" target="OnsuEvIQbx1GbTyRY4oR-231">
          <mxGeometry relative="1" as="geometry" />
        </mxCell>
        <mxCell id="OnsuEvIQbx1GbTyRY4oR-230" value="&amp;lt;a&amp;gt;" style="whiteSpace=wrap;html=1;" vertex="1" parent="1">
          <mxGeometry x="545" y="1430" width="40" height="60" as="geometry" />
        </mxCell>
        <mxCell id="OnsuEvIQbx1GbTyRY4oR-231" value="Text" style="whiteSpace=wrap;html=1;" vertex="1" parent="1">
          <mxGeometry x="575" y="1510" width="35" height="60" as="geometry" />
        </mxCell>
        <mxCell id="OnsuEvIQbx1GbTyRY4oR-232" value="Attribute:&lt;br&gt;&quot;href&quot;" style="whiteSpace=wrap;html=1;" vertex="1" parent="1">
          <mxGeometry x="520" y="1510" width="45" height="60" as="geometry" />
        </mxCell>
        <mxCell id="OnsuEvIQbx1GbTyRY4oR-233" style="edgeStyle=orthogonalEdgeStyle;rounded=0;orthogonalLoop=1;jettySize=auto;html=1;exitX=0.5;exitY=1;exitDx=0;exitDy=0;entryX=0.5;entryY=0;entryDx=0;entryDy=0;" edge="1" parent="1" target="OnsuEvIQbx1GbTyRY4oR-236">
          <mxGeometry relative="1" as="geometry">
            <mxPoint x="665" y="1410" as="sourcePoint" />
          </mxGeometry>
        </mxCell>
        <mxCell id="OnsuEvIQbx1GbTyRY4oR-234" style="edgeStyle=orthogonalEdgeStyle;rounded=0;orthogonalLoop=1;jettySize=auto;html=1;exitX=0.25;exitY=1;exitDx=0;exitDy=0;entryX=0.5;entryY=0;entryDx=0;entryDy=0;" edge="1" parent="1" source="OnsuEvIQbx1GbTyRY4oR-236" target="OnsuEvIQbx1GbTyRY4oR-238">
          <mxGeometry relative="1" as="geometry" />
        </mxCell>
        <mxCell id="OnsuEvIQbx1GbTyRY4oR-235" style="edgeStyle=orthogonalEdgeStyle;rounded=0;orthogonalLoop=1;jettySize=auto;html=1;exitX=0.75;exitY=1;exitDx=0;exitDy=0;entryX=0.5;entryY=0;entryDx=0;entryDy=0;" edge="1" parent="1" source="OnsuEvIQbx1GbTyRY4oR-236" target="OnsuEvIQbx1GbTyRY4oR-237">
          <mxGeometry relative="1" as="geometry" />
        </mxCell>
        <mxCell id="OnsuEvIQbx1GbTyRY4oR-236" value="&amp;lt;a&amp;gt;" style="whiteSpace=wrap;html=1;" vertex="1" parent="1">
          <mxGeometry x="645" y="1430" width="40" height="60" as="geometry" />
        </mxCell>
        <mxCell id="OnsuEvIQbx1GbTyRY4oR-237" value="Text" style="whiteSpace=wrap;html=1;" vertex="1" parent="1">
          <mxGeometry x="675" y="1510" width="35" height="60" as="geometry" />
        </mxCell>
        <mxCell id="OnsuEvIQbx1GbTyRY4oR-238" value="Attribute:&lt;br&gt;&quot;href&quot;" style="whiteSpace=wrap;html=1;" vertex="1" parent="1">
          <mxGeometry x="620" y="1510" width="45" height="60" as="geometry" />
        </mxCell>
        <mxCell id="OnsuEvIQbx1GbTyRY4oR-239" style="edgeStyle=orthogonalEdgeStyle;rounded=0;orthogonalLoop=1;jettySize=auto;html=1;exitX=0.5;exitY=1;exitDx=0;exitDy=0;entryX=0.5;entryY=0;entryDx=0;entryDy=0;" edge="1" parent="1" target="OnsuEvIQbx1GbTyRY4oR-242">
          <mxGeometry relative="1" as="geometry">
            <mxPoint x="765" y="1410" as="sourcePoint" />
          </mxGeometry>
        </mxCell>
        <mxCell id="OnsuEvIQbx1GbTyRY4oR-240" style="edgeStyle=orthogonalEdgeStyle;rounded=0;orthogonalLoop=1;jettySize=auto;html=1;exitX=0.25;exitY=1;exitDx=0;exitDy=0;entryX=0.5;entryY=0;entryDx=0;entryDy=0;" edge="1" parent="1" source="OnsuEvIQbx1GbTyRY4oR-242" target="OnsuEvIQbx1GbTyRY4oR-244">
          <mxGeometry relative="1" as="geometry" />
        </mxCell>
        <mxCell id="OnsuEvIQbx1GbTyRY4oR-241" style="edgeStyle=orthogonalEdgeStyle;rounded=0;orthogonalLoop=1;jettySize=auto;html=1;exitX=0.75;exitY=1;exitDx=0;exitDy=0;entryX=0.5;entryY=0;entryDx=0;entryDy=0;" edge="1" parent="1" source="OnsuEvIQbx1GbTyRY4oR-242" target="OnsuEvIQbx1GbTyRY4oR-243">
          <mxGeometry relative="1" as="geometry" />
        </mxCell>
        <mxCell id="OnsuEvIQbx1GbTyRY4oR-242" value="&amp;lt;a&amp;gt;" style="whiteSpace=wrap;html=1;" vertex="1" parent="1">
          <mxGeometry x="745" y="1430" width="40" height="60" as="geometry" />
        </mxCell>
        <mxCell id="OnsuEvIQbx1GbTyRY4oR-243" value="Text" style="whiteSpace=wrap;html=1;" vertex="1" parent="1">
          <mxGeometry x="775" y="1510" width="35" height="60" as="geometry" />
        </mxCell>
        <mxCell id="OnsuEvIQbx1GbTyRY4oR-244" value="Attribute:&lt;br&gt;&quot;href&quot;" style="whiteSpace=wrap;html=1;" vertex="1" parent="1">
          <mxGeometry x="720" y="1510" width="45" height="60" as="geometry" />
        </mxCell>
        <mxCell id="OnsuEvIQbx1GbTyRY4oR-245" style="edgeStyle=orthogonalEdgeStyle;rounded=0;orthogonalLoop=1;jettySize=auto;html=1;exitX=0.5;exitY=1;exitDx=0;exitDy=0;entryX=0.5;entryY=0;entryDx=0;entryDy=0;" edge="1" parent="1" target="OnsuEvIQbx1GbTyRY4oR-248">
          <mxGeometry relative="1" as="geometry">
            <mxPoint x="872" y="1410" as="sourcePoint" />
          </mxGeometry>
        </mxCell>
        <mxCell id="OnsuEvIQbx1GbTyRY4oR-246" style="edgeStyle=orthogonalEdgeStyle;rounded=0;orthogonalLoop=1;jettySize=auto;html=1;exitX=0.25;exitY=1;exitDx=0;exitDy=0;entryX=0.5;entryY=0;entryDx=0;entryDy=0;" edge="1" parent="1" source="OnsuEvIQbx1GbTyRY4oR-248" target="OnsuEvIQbx1GbTyRY4oR-250">
          <mxGeometry relative="1" as="geometry" />
        </mxCell>
        <mxCell id="OnsuEvIQbx1GbTyRY4oR-247" style="edgeStyle=orthogonalEdgeStyle;rounded=0;orthogonalLoop=1;jettySize=auto;html=1;exitX=0.75;exitY=1;exitDx=0;exitDy=0;entryX=0.5;entryY=0;entryDx=0;entryDy=0;" edge="1" parent="1" source="OnsuEvIQbx1GbTyRY4oR-248" target="OnsuEvIQbx1GbTyRY4oR-249">
          <mxGeometry relative="1" as="geometry" />
        </mxCell>
        <mxCell id="OnsuEvIQbx1GbTyRY4oR-248" value="&amp;lt;a&amp;gt;" style="whiteSpace=wrap;html=1;" vertex="1" parent="1">
          <mxGeometry x="852" y="1430" width="40" height="60" as="geometry" />
        </mxCell>
        <mxCell id="OnsuEvIQbx1GbTyRY4oR-249" value="Text" style="whiteSpace=wrap;html=1;" vertex="1" parent="1">
          <mxGeometry x="882" y="1510" width="35" height="60" as="geometry" />
        </mxCell>
        <mxCell id="OnsuEvIQbx1GbTyRY4oR-250" value="Attribute:&lt;br&gt;&quot;href&quot;" style="whiteSpace=wrap;html=1;" vertex="1" parent="1">
          <mxGeometry x="827" y="1510" width="45" height="60" as="geometry" />
        </mxCell>
        <mxCell id="OnsuEvIQbx1GbTyRY4oR-251" style="edgeStyle=orthogonalEdgeStyle;rounded=0;orthogonalLoop=1;jettySize=auto;html=1;exitX=0.5;exitY=1;exitDx=0;exitDy=0;entryX=0.5;entryY=0;entryDx=0;entryDy=0;" edge="1" parent="1" target="OnsuEvIQbx1GbTyRY4oR-254">
          <mxGeometry relative="1" as="geometry">
            <mxPoint x="995" y="1410" as="sourcePoint" />
          </mxGeometry>
        </mxCell>
        <mxCell id="OnsuEvIQbx1GbTyRY4oR-252" style="edgeStyle=orthogonalEdgeStyle;rounded=0;orthogonalLoop=1;jettySize=auto;html=1;exitX=0.25;exitY=1;exitDx=0;exitDy=0;entryX=0.5;entryY=0;entryDx=0;entryDy=0;" edge="1" parent="1" source="OnsuEvIQbx1GbTyRY4oR-254" target="OnsuEvIQbx1GbTyRY4oR-256">
          <mxGeometry relative="1" as="geometry" />
        </mxCell>
        <mxCell id="OnsuEvIQbx1GbTyRY4oR-253" style="edgeStyle=orthogonalEdgeStyle;rounded=0;orthogonalLoop=1;jettySize=auto;html=1;exitX=0.75;exitY=1;exitDx=0;exitDy=0;entryX=0.5;entryY=0;entryDx=0;entryDy=0;" edge="1" parent="1" source="OnsuEvIQbx1GbTyRY4oR-254" target="OnsuEvIQbx1GbTyRY4oR-255">
          <mxGeometry relative="1" as="geometry" />
        </mxCell>
        <mxCell id="OnsuEvIQbx1GbTyRY4oR-254" value="&amp;lt;a&amp;gt;" style="whiteSpace=wrap;html=1;" vertex="1" parent="1">
          <mxGeometry x="975" y="1430" width="40" height="60" as="geometry" />
        </mxCell>
        <mxCell id="OnsuEvIQbx1GbTyRY4oR-255" value="Text" style="whiteSpace=wrap;html=1;" vertex="1" parent="1">
          <mxGeometry x="1005" y="1510" width="35" height="60" as="geometry" />
        </mxCell>
        <mxCell id="OnsuEvIQbx1GbTyRY4oR-256" value="Attribute:&lt;br&gt;&quot;href&quot;" style="whiteSpace=wrap;html=1;" vertex="1" parent="1">
          <mxGeometry x="950" y="1510" width="45" height="60" as="geometry" />
        </mxCell>
        <mxCell id="OnsuEvIQbx1GbTyRY4oR-257" value="Attribute:&lt;br style=&quot;border-color: var(--border-color);&quot;&gt;&quot;display&quot;" style="whiteSpace=wrap;html=1;" vertex="1" parent="1">
          <mxGeometry x="927.5" y="1430" width="40" height="60" as="geometry" />
        </mxCell>
      </root>
    </mxGraphModel>
  </diagram>
</mxfile>
